<?xml version="1.0" encoding="UTF-8"?>
<svg xmlns="http://www.w3.org/2000/svg" xmlns:xlink="http://www.w3.org/1999/xlink" width="64pt" height="64pt" viewBox="0 0 64 64" version="1.1">
<g id="surface1">
<path style=" stroke:none;fill-rule:nonzero;fill:rgb(0%,0%,0%);fill-opacity:1;" d="M 37.65625 37.65625 C 40.453125 34.84375 40.773438 30.40625 38.40625 27.226562 C 36.03125 24.046875 31.695312 23.085938 28.203125 24.96875 C 27.71875 25.226562 27.53125 25.835938 27.796875 26.320312 C 28.0625 26.804688 28.664062 26.984375 29.15625 26.726562 C 31.773438 25.304688 35.03125 26.023438 36.820312 28.414062 C 38.601562 30.796875 38.359375 34.132812 36.25 36.242188 C 33.90625 38.585938 30.109375 38.585938 27.765625 36.242188 C 25.90625 34.359375 25.484375 31.484375 26.734375 29.148438 C 26.90625 28.828125 26.90625 28.445312 26.71875 28.140625 C 26.53125 27.828125 26.1875 27.640625 25.828125 27.65625 C 25.46875 27.671875 25.140625 27.875 24.96875 28.195312 C 23.304688 31.3125 23.867188 35.148438 26.351562 37.65625 C 29.476562 40.78125 34.539062 40.78125 37.664062 37.65625 Z M 37.65625 37.65625 "/>
<path style=" stroke:none;fill-rule:nonzero;fill:rgb(0%,0%,0%);fill-opacity:1;" d="M 35.65625 32.585938 C 36.671875 31.578125 36.828125 29.984375 36.03125 28.796875 C 35.234375 27.609375 33.710938 27.140625 32.390625 27.6875 C 31.0625 28.234375 30.3125 29.640625 30.59375 31.046875 C 30.875 32.453125 32.101562 33.460938 33.53125 33.46875 C 34.328125 33.460938 35.09375 33.148438 35.65625 32.585938 Z M 32.828125 31.171875 C 32.4375 30.78125 32.4375 30.148438 32.828125 29.757812 C 33.21875 29.367188 33.851562 29.367188 34.242188 29.757812 C 34.632812 30.148438 34.632812 30.78125 34.242188 31.171875 C 33.851562 31.5625 33.21875 31.5625 32.828125 31.171875 Z M 32.828125 31.171875 "/>
<path style=" stroke:none;fill-rule:nonzero;fill:rgb(0%,0%,0%);fill-opacity:1;" d="M 62 18 C 61.992188 15.070312 59.867188 12.570312 56.976562 12.09375 C 54.085938 11.617188 51.273438 13.296875 50.320312 16.070312 C 45.289062 14.585938 36.226562 15.703125 26 21.609375 C 24.859375 22.265625 23.765625 22.960938 22.679688 23.703125 C 22.835938 22.765625 23.015625 21.851562 23.234375 20.953125 C 23.8125 20.585938 24.390625 20.226562 25 19.875 C 33.34375 15.0625 42.171875 12.734375 48.632812 13.640625 C 49.179688 13.71875 49.6875 13.335938 49.765625 12.789062 C 49.84375 12.242188 49.460938 11.734375 48.90625 11.65625 C 47.226562 11.4375 45.523438 11.390625 43.828125 11.523438 C 40.820312 5.382812 36.640625 2 32 2 C 31.445312 2 31 2.445312 31 3 C 31 3.554688 31.445312 4 32 4 C 35.617188 4 39.101562 6.804688 41.703125 11.742188 C 41.015625 11.835938 40.3125 11.953125 39.609375 12.09375 C 37.421875 8.21875 34.679688 6 32 6 C 29.171875 6 26.265625 8.460938 24.046875 12.75 C 23.75 13.3125 23.453125 13.9375 23.164062 14.625 C 22.890625 15.265625 22.625 15.953125 22.382812 16.65625 C 22 17.734375 21.664062 18.890625 21.375 20.078125 L 21.375 20.101562 C 20.4375 24 19.976562 27.992188 20 32 C 20 33.3125 20.0625 34.625 20.15625 35.921875 C 18.6875 34.71875 17.296875 33.40625 16.015625 32 C 16.546875 31.414062 17.117188 30.820312 17.75 30.21875 C 17.9375 30.03125 18.046875 29.796875 18.054688 29.53125 C 18.132812 27.625 18.3125 25.726562 18.59375 23.84375 C 18.945312 21.453125 19.484375 19.109375 20.210938 16.8125 C 20.625 15.507812 21.117188 14.234375 21.6875 12.992188 C 23.617188 8.8125 26.101562 5.945312 28.875 4.6875 C 29.210938 4.546875 29.4375 4.234375 29.484375 3.875 C 29.523438 3.515625 29.359375 3.15625 29.0625 2.953125 C 28.765625 2.742188 28.375 2.710938 28.046875 2.867188 C 24.984375 4.25 22.28125 7.25 20.1875 11.523438 C 17.382812 11.265625 14.5625 11.578125 11.882812 12.4375 C 10.1875 10.96875 7.8125 10.578125 5.734375 11.421875 C 3.65625 12.265625 2.226562 14.195312 2.023438 16.421875 C 1.820312 18.65625 2.875 20.8125 4.765625 22.015625 C 4.78125 25.085938 6.015625 28.515625 8.367188 32.007812 C 4.679688 37.53125 3.6875 42.960938 6.015625 47 C 8.171875 50.726562 12.601562 52.585938 18.273438 52.585938 C 18.898438 52.585938 19.546875 52.5625 20.195312 52.515625 C 23.203125 58.632812 27.367188 62 32 62 C 36.632812 62 40.8125 58.625 43.820312 52.484375 C 44.453125 52.53125 45.085938 52.554688 45.695312 52.554688 C 47.5 52.570312 49.296875 52.351562 51.046875 51.90625 C 51.398438 51.820312 51.6875 51.554688 51.78125 51.203125 C 51.882812 50.851562 51.78125 50.46875 51.515625 50.21875 C 51.257812 49.960938 50.875 49.867188 50.53125 49.976562 C 46.390625 51.078125 40.734375 50.554688 34.75 48.554688 C 35.625 48.15625 36.515625 47.726562 37.40625 47.265625 C 45.6875 49.578125 52.375 48.703125 54.515625 45 C 55.84375 42.695312 55.28125 39.21875 53.015625 35.398438 C 53.5 34.84375 53.953125 34.28125 54.382812 33.726562 C 57.375 38.4375 58.0625 42.859375 56.25 46 C 55.664062 47 54.851562 47.859375 53.890625 48.5 C 53.523438 48.75 53.359375 49.203125 53.492188 49.625 C 53.617188 50.039062 54.007812 50.328125 54.445312 50.328125 C 54.648438 50.328125 54.84375 50.265625 55.007812 50.15625 C 56.226562 49.34375 57.242188 48.265625 57.984375 47 C 60.304688 42.976562 59.460938 37.664062 55.640625 31.984375 C 57.539062 29.34375 58.765625 26.273438 59.1875 23.046875 C 60.9375 21.960938 62 20.054688 62 18 Z M 47.695312 37.90625 C 47.796875 36.9375 47.867188 35.945312 47.914062 34.953125 C 52.171875 30.78125 54.820312 26.367188 55.1875 22.78125 C 55.1875 22.773438 55.195312 22.765625 55.203125 22.75 C 55.28125 22.03125 55.25 21.296875 55.109375 20.578125 C 55.03125 20.15625 55.234375 19.726562 55.609375 19.523438 C 55.890625 19.359375 56.226562 19.34375 56.523438 19.476562 C 56.804688 19.601562 57.015625 19.851562 57.078125 20.15625 C 57.226562 20.898438 57.28125 21.648438 57.234375 22.40625 C 57.234375 22.421875 57.234375 22.429688 57.234375 22.4375 C 57.007812 27.132812 53.476562 32.796875 47.695312 37.90625 Z M 43.640625 38.28125 L 43.640625 38.25 C 43.875 36.171875 44 34.085938 44 32 C 44 29.914062 43.882812 27.828125 43.640625 25.75 C 43.335938 23.046875 42.773438 20.382812 41.976562 17.78125 C 42.671875 17.679688 43.359375 17.59375 44.007812 17.546875 C 44.625 19.609375 45.09375 21.710938 45.40625 23.835938 C 45.6875 25.726562 45.867188 27.625 45.945312 29.53125 C 45.984375 30.34375 46 31.164062 46 32 C 46 32.835938 45.984375 33.65625 45.945312 34.46875 C 45.867188 36.375 45.6875 38.273438 45.40625 40.164062 C 45.09375 42.296875 44.625 44.398438 44.007812 46.460938 C 43.359375 46.414062 42.6875 46.335938 41.96875 46.226562 C 42.773438 43.632812 43.328125 40.96875 43.640625 38.28125 Z M 41.335938 23.703125 C 40.242188 22.96875 39.140625 22.265625 38 21.609375 C 36.867188 20.953125 35.695312 20.359375 34.5 19.78125 C 36.289062 19.101562 38.125 18.5625 40 18.148438 C 40.578125 19.96875 41.023438 21.828125 41.328125 23.703125 Z M 48 31.976562 C 48 31.125 47.976562 30.28125 47.9375 29.445312 C 47.890625 28.3125 47.804688 27.195312 47.695312 26.09375 C 48.695312 26.984375 49.640625 27.890625 50.515625 28.8125 C 49.75 29.921875 48.90625 30.984375 48 31.976562 Z M 56 14 C 58.210938 14 60 15.789062 60 18 C 60 18.890625 59.703125 19.75 59.15625 20.445312 C 59.117188 20.203125 59.078125 19.96875 59.03125 19.734375 C 58.835938 18.8125 58.203125 18.03125 57.328125 17.648438 C 56.4375 17.257812 55.421875 17.320312 54.578125 17.8125 C 53.539062 18.40625 52.960938 19.578125 53.109375 20.765625 C 52.398438 20.023438 52 19.03125 52 18 C 52 15.789062 53.789062 14 56 14 Z M 53.078125 23.226562 C 52.796875 24.570312 52.296875 25.867188 51.601562 27.054688 C 50.25 25.671875 48.828125 24.367188 47.320312 23.15625 C 47.015625 21.242188 46.609375 19.351562 46.078125 17.484375 C 47.40625 17.484375 48.734375 17.6875 50 18.070312 C 50.023438 20.21875 51.203125 22.1875 53.078125 23.226562 Z M 32 8 C 33.796875 8 35.828125 9.6875 37.546875 12.554688 C 35.664062 13.023438 33.8125 13.617188 32 14.3125 C 30.1875 13.609375 28.335938 13.023438 26.445312 12.546875 C 28.171875 9.679688 30.203125 8 32 8 Z M 24.265625 17.3125 C 24.5 16.648438 24.75 16.007812 25.007812 15.390625 C 25.164062 15.03125 25.320312 14.6875 25.46875 14.367188 C 26.71875 14.664062 27.984375 15.023438 29.265625 15.453125 C 27.46875 16.257812 25.703125 17.15625 24 18.140625 C 24.09375 17.867188 24.171875 17.578125 24.265625 17.3125 Z M 22 32 C 22 30.140625 22.101562 28.273438 22.296875 26.421875 C 23.8125 25.3125 25.375 24.28125 27 23.34375 C 28.609375 22.40625 30.28125 21.5625 31.984375 20.8125 C 33.703125 21.5625 35.375 22.40625 37 23.34375 C 38.617188 24.28125 40.1875 25.304688 41.6875 26.421875 C 41.890625 28.273438 42 30.132812 42 32 C 42 33.867188 41.890625 35.734375 41.6875 37.59375 C 40.1875 38.695312 38.617188 39.71875 37 40.65625 C 35.390625 41.59375 33.726562 42.4375 32.03125 43.195312 C 30.304688 42.4375 28.625 41.59375 27 40.65625 C 25.382812 39.726562 23.8125 38.703125 22.3125 37.601562 C 22.109375 35.742188 22 33.875 22 32 Z M 26 42.390625 C 27.140625 43.046875 28.3125 43.648438 29.507812 44.226562 C 27.71875 44.90625 25.875 45.453125 24.007812 45.875 C 23.757812 45.085938 23.515625 44.28125 23.304688 43.4375 C 23.234375 43.164062 23.0625 42.9375 22.8125 42.804688 C 19.398438 40.648438 16.257812 38.078125 13.460938 35.164062 C 13.828125 34.625 14.234375 34.078125 14.6875 33.515625 C 17.992188 37.023438 21.804688 40.015625 26 42.390625 Z M 12.375 36.921875 C 13.726562 38.320312 15.164062 39.632812 16.679688 40.851562 C 16.984375 42.765625 17.398438 44.664062 17.921875 46.53125 C 14.5 46.460938 12.085938 45.507812 11.21875 44 C 10.398438 42.585938 10.632812 40.0625 12.375 36.921875 Z M 20 46.476562 C 19.632812 45.25 19.3125 43.976562 19.046875 42.648438 C 19.828125 43.21875 20.640625 43.773438 21.46875 44.3125 C 21.640625 44.96875 21.828125 45.609375 22.03125 46.242188 C 21.328125 46.34375 20.648438 46.429688 20 46.476562 Z M 19.3125 13.476562 C 18.953125 14.34375 18.609375 15.25 18.3125 16.195312 C 17.59375 18.46875 17.046875 20.796875 16.6875 23.164062 C 15.179688 24.375 13.75 25.6875 12.398438 27.078125 C 11.53125 25.609375 10.984375 23.976562 10.796875 22.28125 C 12.226562 21.539062 13.296875 20.25 13.75 18.710938 C 14.210938 17.171875 14.03125 15.507812 13.25 14.101562 C 15.21875 13.578125 17.265625 13.359375 19.3125 13.476562 Z M 8 13 C 9.078125 13 10.101562 13.429688 10.851562 14.203125 L 10.875 14.226562 C 12.382812 15.78125 12.375 18.242188 10.859375 19.78125 C 10.695312 18.953125 10.171875 18.234375 9.4375 17.8125 L 9.351562 17.765625 C 8.546875 17.304688 7.570312 17.25 6.71875 17.609375 C 5.859375 17.976562 5.226562 18.71875 5 19.625 C 4.359375 18.898438 4 17.96875 4 17 C 4 14.789062 5.789062 13 8 13 Z M 6.757812 21.507812 L 6.757812 21.5 C 6.773438 21.046875 6.828125 20.59375 6.921875 20.148438 C 6.984375 19.84375 7.195312 19.585938 7.484375 19.453125 C 7.765625 19.335938 8.085938 19.351562 8.351562 19.5 L 8.4375 19.554688 C 8.789062 19.75 8.96875 20.15625 8.890625 20.546875 C 8.820312 20.898438 8.773438 21.257812 8.765625 21.617188 C 8.757812 21.703125 8.765625 21.789062 8.78125 21.875 C 8.898438 24.28125 9.65625 26.609375 10.976562 28.617188 C 10.492188 29.171875 10.039062 29.71875 9.609375 30.28125 C 7.625 27.132812 6.632812 24.125 6.757812 21.507812 Z M 32 60 C 28.390625 60 24.90625 57.203125 22.320312 52.289062 C 23.007812 52.195312 23.703125 52.078125 24.414062 51.9375 C 26.585938 55.796875 29.328125 58 32 58 C 34.671875 58 37.421875 55.789062 39.601562 51.914062 C 40.3125 52.054688 41.007812 52.171875 41.703125 52.265625 C 39.101562 57.203125 35.617188 60 32 60 Z M 37.546875 51.453125 C 35.820312 54.320312 33.796875 56 32 56 C 30.203125 56 28.179688 54.328125 26.460938 51.46875 C 28.34375 50.992188 30.203125 50.398438 32.015625 49.695312 C 33.820312 50.390625 35.671875 50.984375 37.546875 51.453125 Z M 36.773438 45.34375 C 23.882812 52.054688 11.414062 52.34375 7.75 46 C 5.734375 42.507812 6.796875 37.65625 10.320312 32.640625 C 10.367188 32.59375 10.40625 32.53125 10.445312 32.46875 C 11.234375 31.375 12.09375 30.320312 13.007812 29.320312 C 13.015625 29.3125 13.03125 29.296875 13.039062 29.289062 C 14.070312 28.164062 15.15625 27.09375 16.296875 26.09375 C 16.203125 27.0625 16.125 28.046875 16.078125 29.046875 C 9.929688 35.0625 7.34375 41.296875 9.484375 45 C 10.796875 47.265625 13.984375 48.539062 18.335938 48.539062 C 23.617188 48.539062 30.609375 46.65625 38 42.390625 C 39.140625 41.734375 40.234375 41.039062 41.328125 40.296875 C 41.015625 42.171875 40.570312 44.03125 39.992188 45.851562 C 39.21875 45.679688 38.414062 45.484375 37.578125 45.234375 C 37.304688 45.15625 37.015625 45.203125 36.773438 45.34375 Z M 52.78125 44 C 51.96875 45.421875 49.664062 46.476562 46.070312 46.539062 C 46.601562 44.664062 47.015625 42.765625 47.320312 40.84375 C 48.828125 39.625 50.257812 38.320312 51.609375 36.929688 C 53.234375 39.859375 53.679688 42.453125 52.78125 44 Z M 52.78125 44 "/>
</g>
</svg>
